<svg xmlns="http://www.w3.org/2000/svg" viewBox="0 0 16 16" fill="none">
  <!-- JSON: curly braces -->
  <path d="M5 2.5C3.5 2.5 3 3.5 3 4.5V6C3 6.8 2.5 7.5 1.5 8C2.5 8.5 3 9.2 3 10V11.5C3 12.5 3.5 13.5 5 13.5" stroke="#A3A3A3" stroke-width="1.2" stroke-linecap="round" stroke-linejoin="round"/>
  <path d="M11 2.5C12.5 2.5 13 3.5 13 4.5V6C13 6.8 13.5 7.5 14.5 8C13.5 8.5 13 9.2 13 10V11.5C13 12.5 12.5 13.5 11 13.5" stroke="#A3A3A3" stroke-width="1.2" stroke-linecap="round" stroke-linejoin="round"/>
  <circle cx="6.5" cy="8" r="0.7" fill="#A3A3A3"/>
  <circle cx="9.5" cy="8" r="0.7" fill="#A3A3A3"/>
</svg>
