<svg xmlns="http://www.w3.org/2000/svg" viewBox="0 0 16 16" fill="none">
  <!-- CSS: curly braces with hash -->
  <path d="M4 3C3 3 2.5 4 2.5 5V6.5C2.5 7 2 7.5 1.5 7.5" stroke="#1572B6" stroke-width="1.2" stroke-linecap="round"/>
  <path d="M4 13C3 13 2.5 12 2.5 11V9.5C2.5 9 2 8.5 1.5 8.5" stroke="#1572B6" stroke-width="1.2" stroke-linecap="round"/>
  <path d="M12 3C13 3 13.5 4 13.5 5V6.5C13.5 7 14 7.5 14.5 7.5" stroke="#1572B6" stroke-width="1.2" stroke-linecap="round"/>
  <path d="M12 13C13 13 13.5 12 13.5 11V9.5C13.5 9 14 8.5 14.5 8.5" stroke="#1572B6" stroke-width="1.2" stroke-linecap="round"/>
  <line x1="6" y1="6" x2="10" y2="6" stroke="#1572B6" stroke-width="1" stroke-linecap="round"/>
  <line x1="6" y1="8" x2="10" y2="8" stroke="#1572B6" stroke-width="1" stroke-linecap="round"/>
  <line x1="7" y1="4.5" x2="7" y2="9.5" stroke="#1572B6" stroke-width="1" stroke-linecap="round"/>
  <line x1="9" y1="6.5" x2="9" y2="11.5" stroke="#1572B6" stroke-width="1" stroke-linecap="round"/>
</svg>
